<svg width="36" height="37" viewBox="0 0 36 37" fill="none" xmlns="http://www.w3.org/2000/svg">
<circle cx="18" cy="18.4338" r="18" fill="url(#paint0_linear_1498_100)"/>
<path d="M19.488 17.4658H23.76C23.792 17.5618 23.824 17.6738 23.856 17.8018C23.904 17.9298 23.928 18.0658 23.928 18.2098C23.928 18.7698 23.648 19.0498 23.088 19.0498H19.488V23.6818C19.36 23.7298 19.232 23.7698 19.104 23.8018C18.992 23.8338 18.848 23.8498 18.672 23.8498C18.352 23.8498 18.112 23.7778 17.952 23.6338C17.808 23.4898 17.736 23.2418 17.736 22.8898V19.0498H13.392C13.344 18.9378 13.304 18.8258 13.272 18.7138C13.24 18.5858 13.224 18.4418 13.224 18.2818C13.224 17.7378 13.504 17.4658 14.064 17.4658H17.736V12.9298C17.864 12.8818 17.992 12.8418 18.12 12.8098C18.264 12.7778 18.432 12.7618 18.624 12.7618C18.928 12.7618 19.144 12.8338 19.272 12.9778C19.416 13.1218 19.488 13.3698 19.488 13.7218V17.4658Z" fill="white"/>
<defs>
<linearGradient id="paint0_linear_1498_100" x1="18" y1="0.433838" x2="18.0114" y2="43.4338" gradientUnits="userSpaceOnUse">
<stop offset="0.324052" stop-color="#6210E1"/>
<stop offset="1" stop-color="#1400AE"/>
</linearGradient>
</defs>
</svg>
