<svg width="91" height="91" viewBox="0 0 91 91" fill="none" xmlns="http://www.w3.org/2000/svg">
<path d="M38 5.16753C42.641 2.48804 48.359 2.48804 53 5.16753L76.9711 19.0073C81.6122 21.6868 84.4711 26.6387 84.4711 31.9977V59.6771C84.4711 65.0361 81.6122 69.988 76.9711 72.6675L53 86.5073C48.359 89.1868 42.641 89.1868 38 86.5073L14.0289 72.6675C9.38784 69.988 6.52886 65.0361 6.52886 59.6772V31.9977C6.52886 26.6387 9.38784 21.6868 14.0289 19.0073L38 5.16753Z" fill="url(#paint0_linear_0_349)"/>
<path d="M39.7494 39.9974C39.5788 39.7627 39.4081 39.5494 39.2374 39.3574C39.0774 39.1654 38.8854 39.0054 38.6614 38.8774C38.4481 38.7387 38.1921 38.6321 37.8934 38.5574C37.6054 38.4827 37.2534 38.4454 36.8374 38.4454C36.6988 38.4454 36.5761 38.4507 36.4694 38.4614C36.3628 38.4614 36.2508 38.4614 36.1334 38.4614C36.0161 38.4614 35.8828 38.4667 35.7334 38.4774C35.5948 38.4774 35.4134 38.4774 35.1894 38.4774C34.1974 38.4774 33.4241 38.2427 32.8694 37.7734C32.3254 37.3041 32.0534 36.6214 32.0534 35.7254C32.0534 35.2561 32.1228 34.9201 32.2614 34.7174C32.4108 34.5147 32.6081 34.4134 32.8534 34.4134C32.9708 34.4134 33.0668 34.4401 33.1414 34.4934C33.2161 34.5361 33.2748 34.5787 33.3174 34.6214C33.2961 34.7067 33.2748 34.8401 33.2534 35.0214C33.2321 35.1921 33.2214 35.3841 33.2214 35.5974C33.2214 36.2587 33.3921 36.7387 33.7334 37.0374C34.0854 37.3254 34.5974 37.4694 35.2694 37.4694C35.4934 37.4694 35.6748 37.4694 35.8134 37.4694C35.9628 37.4587 36.0961 37.4534 36.2134 37.4534C36.3308 37.4534 36.4481 37.4534 36.5654 37.4534C36.6828 37.4427 36.8321 37.4374 37.0134 37.4374C37.6641 37.4374 38.1868 37.5227 38.5814 37.6934C38.9761 37.8641 39.3121 38.1147 39.5894 38.4454C39.5574 38.2001 39.5308 37.9547 39.5094 37.7094C39.4881 37.4534 39.4721 37.2134 39.4614 36.9894C39.4508 36.7547 39.4401 36.5467 39.4294 36.3654C39.4294 36.1734 39.4294 36.0187 39.4294 35.9014V31.8534C39.4294 31.4587 39.3494 31.1814 39.1894 31.0214C39.0401 30.8614 38.8214 30.7814 38.5334 30.7814C38.2881 30.7814 38.0374 30.8507 37.7814 30.9894C37.5254 31.1281 37.2908 31.3094 37.0774 31.5334C36.8748 31.7467 36.7041 31.9974 36.5654 32.2854C36.4374 32.5627 36.3734 32.8454 36.3734 33.1334C36.3734 33.4641 36.4908 33.6934 36.7254 33.8214C36.9601 33.9387 37.2321 33.9974 37.5414 33.9974H37.7974C37.8188 34.0507 37.8348 34.1147 37.8454 34.1894C37.8668 34.2641 37.8774 34.3281 37.8774 34.3814C37.8774 34.7867 37.6321 34.9894 37.1414 34.9894C36.5974 34.9894 36.1388 34.8347 35.7654 34.5254C35.3921 34.2054 35.2054 33.7734 35.2054 33.2294C35.2054 32.8027 35.2961 32.3814 35.4774 31.9654C35.6588 31.5494 35.9041 31.1814 36.2134 30.8614C36.5228 30.5307 36.8801 30.2694 37.2854 30.0774C37.7014 29.8747 38.1334 29.7734 38.5814 29.7734C38.8588 29.7734 39.1148 29.8107 39.3494 29.8854C39.5841 29.9601 39.7868 30.0774 39.9574 30.2374C40.1388 30.3974 40.2774 30.6107 40.3734 30.8774C40.4801 31.1441 40.5334 31.4694 40.5334 31.8534V39.8534C40.3948 39.9601 40.1868 40.0134 39.9094 40.0134C39.8348 40.0134 39.7814 40.0081 39.7494 39.9974ZM51.4721 33.2614C51.7814 33.2614 52.0694 33.3094 52.3361 33.4054C52.6134 33.5014 52.8481 33.6454 53.0401 33.8374C53.2427 34.0294 53.4027 34.2694 53.5201 34.5574C53.6374 34.8454 53.6961 35.1761 53.6961 35.5494C53.6961 36.1041 53.5787 36.6321 53.3441 37.1334C53.1201 37.6347 52.8161 38.0721 52.4321 38.4454C52.0587 38.8187 51.6321 39.1174 51.1521 39.3414C50.6721 39.5654 50.1814 39.6774 49.6801 39.6774C48.8801 39.6774 48.2667 39.4641 47.8401 39.0374C47.4241 38.6107 47.2161 37.9921 47.2161 37.1814V30.8614H44.1441V39.9494C44.0801 39.9707 44.0054 39.9867 43.9201 39.9974C43.8454 40.0081 43.7654 40.0134 43.6801 40.0134C43.4774 40.0134 43.3174 39.9761 43.2001 39.9014C43.0934 39.8267 43.0401 39.6987 43.0401 39.5174V30.8614H41.5361C41.2374 30.8614 41.0881 30.7014 41.0881 30.3814C41.0881 30.3174 41.0934 30.2481 41.1041 30.1734C41.1147 30.0987 41.1307 30.0187 41.1521 29.9334H42.8481C42.6027 29.5921 42.4801 29.1174 42.4801 28.5094C42.4801 28.1041 42.5654 27.7201 42.7361 27.3574C42.9174 26.9947 43.1787 26.6801 43.5201 26.4134C43.8614 26.1361 44.2774 25.9174 44.7681 25.7574C45.2694 25.5974 45.8454 25.5174 46.4961 25.5174C47.1467 25.5174 47.7494 25.5814 48.3041 25.7094C48.8587 25.8267 49.3601 25.9707 49.8081 26.1414C50.2561 26.3014 50.6401 26.4721 50.9601 26.6534C51.2907 26.8347 51.5467 26.9894 51.7281 27.1174C51.9201 27.2561 52.0481 27.3787 52.1121 27.4854C52.1867 27.5921 52.2241 27.6987 52.2241 27.8054C52.2241 27.8267 52.2187 27.8481 52.2081 27.8694C52.2081 27.8907 52.2081 27.9121 52.2081 27.9334C52.5067 28.0507 52.7361 28.2321 52.8961 28.4774C53.0667 28.7121 53.1521 28.9841 53.1521 29.2934C53.1521 29.4107 53.1361 29.5281 53.1041 29.6454C53.0827 29.7521 53.0507 29.8481 53.0081 29.9334H54.6721C54.9707 29.9334 55.1201 30.0934 55.1201 30.4134C55.1201 30.4774 55.1147 30.5467 55.1041 30.6214C55.0934 30.6961 55.0774 30.7761 55.0561 30.8614H48.3201V37.1814C48.3201 37.7041 48.4267 38.0827 48.6401 38.3174C48.8534 38.5521 49.2001 38.6694 49.6801 38.6694C50.0001 38.6694 50.3307 38.5947 50.6721 38.4454C51.0134 38.2854 51.3174 38.0667 51.5841 37.7894C51.8614 37.5121 52.0854 37.1867 52.2561 36.8134C52.4374 36.4294 52.5281 36.0134 52.5281 35.5654C52.5281 35.1174 52.4001 34.7921 52.1441 34.5894C51.8881 34.3867 51.5467 34.2854 51.1201 34.2854H50.5121C50.4801 34.2321 50.4481 34.1734 50.4161 34.1094C50.3947 34.0454 50.3841 33.9707 50.3841 33.8854C50.3841 33.6827 50.4481 33.5281 50.5761 33.4214C50.7147 33.3147 50.9387 33.2614 51.2481 33.2614H51.4721ZM45.0881 27.3254C45.0881 27.0694 45.1307 26.8561 45.2161 26.6854C44.6934 26.8454 44.2987 27.1014 44.0321 27.4534C43.7761 27.7947 43.6481 28.1894 43.6481 28.6374C43.6481 28.9574 43.6907 29.2241 43.7761 29.4374C43.8614 29.6401 43.9681 29.8054 44.0961 29.9334H52.0161C52.0801 29.8054 52.1121 29.6507 52.1121 29.4694C52.1121 29.2134 52.0481 29.0214 51.9201 28.8934C51.7921 28.7654 51.5841 28.7014 51.2961 28.7014C50.9014 28.7014 50.5654 28.7227 50.2881 28.7654C50.0107 28.7974 49.7281 28.8347 49.4401 28.8774C49.1627 28.9201 48.8587 28.9627 48.5281 29.0054C48.1974 29.0374 47.7814 29.0534 47.2801 29.0534C46.5654 29.0534 46.0214 28.8987 45.6481 28.5894C45.2747 28.2694 45.0881 27.8481 45.0881 27.3254ZM47.4561 28.1414C47.7547 28.1414 48.0374 28.1254 48.3041 28.0934C48.5814 28.0507 48.8587 28.0081 49.1361 27.9654C49.4241 27.9227 49.7227 27.8854 50.0321 27.8534C50.3414 27.8107 50.6774 27.7841 51.0401 27.7734C50.3894 27.4001 49.6854 27.0961 48.9281 26.8614C48.1707 26.6161 47.3814 26.4934 46.5601 26.4934C46.5067 26.4934 46.4587 26.4987 46.4161 26.5094C46.3841 26.5094 46.3467 26.5094 46.3041 26.5094C46.2401 26.6694 46.2081 26.8454 46.2081 27.0374C46.2081 27.3787 46.2987 27.6507 46.4801 27.8534C46.6721 28.0454 46.9974 28.1414 47.4561 28.1414ZM30.0878 50.8614V59.9494C30.0238 59.9707 29.9491 59.9867 29.8638 59.9974C29.7891 60.0081 29.7091 60.0134 29.6238 60.0134C29.4211 60.0134 29.2611 59.9761 29.1438 59.9014C29.0371 59.8267 28.9838 59.6987 28.9838 59.5174V50.8614H27.5758C27.2771 50.8614 27.1278 50.7014 27.1278 50.3814C27.1278 50.3174 27.1331 50.2481 27.1438 50.1734C27.1545 50.0987 27.1705 50.0187 27.1918 49.9334H28.7758C28.5411 49.6134 28.4238 49.1921 28.4238 48.6694C28.4238 48.2854 28.5091 47.9227 28.6798 47.5814C28.8611 47.2294 29.1225 46.9254 29.4638 46.6694C29.8051 46.4134 30.2211 46.2107 30.7118 46.0614C31.2131 45.9121 31.7891 45.8374 32.4398 45.8374C33.0478 45.8374 33.6131 45.8907 34.1358 45.9974C34.6585 46.1041 35.1278 46.2321 35.5438 46.3814C35.9705 46.5307 36.3331 46.6907 36.6318 46.8614C36.9411 47.0214 37.1811 47.1601 37.3518 47.2774C37.5438 47.4054 37.6718 47.5281 37.7358 47.6454C37.8105 47.7521 37.8478 47.8587 37.8478 47.9654C37.8478 48.1041 37.8105 48.2107 37.7358 48.2854C37.6611 48.3601 37.5811 48.4241 37.4958 48.4774C36.8238 48.0081 36.0558 47.6134 35.1918 47.2934C34.3385 46.9734 33.4425 46.8134 32.5038 46.8134C31.5331 46.8134 30.8025 47.0054 30.3118 47.3894C29.8318 47.7627 29.5918 48.2321 29.5918 48.7974C29.5918 49.0747 29.6345 49.3094 29.7198 49.5014C29.8051 49.6827 29.9065 49.8267 30.0238 49.9334H31.7998C32.0985 49.9334 32.2478 50.0934 32.2478 50.4134C32.2478 50.4774 32.2425 50.5467 32.2318 50.6214C32.2211 50.6961 32.2051 50.7761 32.1838 50.8614H30.0878ZM38.7106 50.8614V52.1254C39.3186 52.1574 39.8679 52.2481 40.3586 52.3974C40.8492 52.5467 41.2706 52.7494 41.6226 53.0054C41.9746 53.2614 42.2466 53.5654 42.4386 53.9174C42.6306 54.2587 42.7266 54.6427 42.7266 55.0694C42.7266 55.4321 42.6679 55.7521 42.5506 56.0294C42.4332 56.3067 42.2732 56.5414 42.0706 56.7334C41.8786 56.9147 41.6546 57.0534 41.3986 57.1494C41.1532 57.2454 40.9026 57.2934 40.6466 57.2934C40.1452 57.2934 39.8946 57.0801 39.8946 56.6534C39.8946 56.5254 39.9159 56.4081 39.9586 56.3014H40.2146C40.6412 56.3014 40.9719 56.1894 41.2066 55.9654C41.4412 55.7414 41.5586 55.4427 41.5586 55.0694C41.5586 54.4934 41.2919 54.0454 40.7586 53.7254C40.2359 53.3947 39.5532 53.1974 38.7106 53.1334V59.8374C38.6466 59.8907 38.5559 59.9334 38.4386 59.9654C38.3319 59.9974 38.2146 60.0134 38.0866 60.0134C38.0226 60.0134 37.9692 60.0081 37.9266 59.9974C36.9346 59.1547 35.9586 58.4134 34.9986 57.7734C34.0492 57.1334 33.0679 56.5254 32.0546 55.9494C32.0119 55.8534 31.9746 55.7361 31.9426 55.5974C31.9212 55.4587 31.9106 55.3147 31.9106 55.1654C31.9106 55.1334 31.9106 55.0907 31.9106 55.0374C31.9106 54.9734 31.9159 54.9147 31.9266 54.8614C32.2999 54.5841 32.7212 54.3121 33.1906 54.0454C33.6599 53.7681 34.1452 53.5067 34.6466 53.2614C35.1479 53.0161 35.6492 52.7974 36.1506 52.6054C36.6626 52.4027 37.1479 52.2374 37.6066 52.1094V50.8614H31.4466C31.1479 50.8614 30.9986 50.7014 30.9986 50.3814C30.9986 50.3174 31.0039 50.2481 31.0146 50.1734C31.0252 50.0987 31.0412 50.0187 31.0626 49.9334H43.4786C43.7772 49.9334 43.9266 50.0934 43.9266 50.4134C43.9266 50.4774 43.9212 50.5467 43.9106 50.6214C43.8999 50.6961 43.8839 50.7761 43.8626 50.8614H38.7106ZM37.6066 53.1814C36.8386 53.3947 36.0492 53.6987 35.2386 54.0934C34.4279 54.4774 33.6972 54.8881 33.0466 55.3254C33.5692 55.6347 34.0706 55.9494 34.5506 56.2694C35.0412 56.5787 35.4892 56.8827 35.8946 57.1814C36.3106 57.4694 36.6786 57.7414 36.9986 57.9974C37.3186 58.2427 37.5746 58.4507 37.7666 58.6214C37.7452 58.4614 37.7239 58.2641 37.7026 58.0294C37.6919 57.7841 37.6759 57.5334 37.6546 57.2774C37.6439 57.0107 37.6332 56.7547 37.6226 56.5094C37.6119 56.2641 37.6066 56.0614 37.6066 55.9014V53.1814ZM50.8284 50.8614V59.8374C50.7644 59.8587 50.6898 59.8747 50.6044 59.8854C50.5298 59.8961 50.4498 59.9014 50.3644 59.9014C50.1618 59.9014 50.0018 59.8641 49.8844 59.7894C49.7778 59.7147 49.7244 59.5867 49.7244 59.4054V56.3974C49.5751 56.1307 49.3884 55.8694 49.1644 55.6134C48.9404 55.3574 48.6951 55.1281 48.4284 54.9254C48.1724 54.7227 47.8898 54.5574 47.5804 54.4294C47.2818 54.3014 46.9778 54.2374 46.6684 54.2374C46.2098 54.2374 45.8524 54.3547 45.5964 54.5894C45.3511 54.8241 45.2284 55.1281 45.2284 55.5014C45.2284 55.7147 45.2604 55.9014 45.3244 56.0614C45.3884 56.2107 45.4524 56.3441 45.5164 56.4614C45.4631 56.5574 45.3884 56.6481 45.2924 56.7334C45.1964 56.8081 45.0684 56.8454 44.9084 56.8454C44.6631 56.8454 44.4444 56.7281 44.2524 56.4934C44.0604 56.2587 43.9644 55.9174 43.9644 55.4694C43.9644 55.0854 44.0391 54.7494 44.1884 54.4614C44.3378 54.1734 44.5298 53.9334 44.7644 53.7414C45.0098 53.5494 45.2818 53.4107 45.5804 53.3254C45.8898 53.2294 46.1991 53.1814 46.5084 53.1814C46.8818 53.1814 47.2284 53.2294 47.5484 53.3254C47.8684 53.4214 48.1618 53.5494 48.4284 53.7094C48.6951 53.8587 48.9351 54.0294 49.1484 54.2214C49.3618 54.4134 49.5538 54.6107 49.7244 54.8134V50.8614H43.1164C42.8178 50.8614 42.6684 50.7014 42.6684 50.3814C42.6684 50.3174 42.6738 50.2481 42.6844 50.1734C42.6951 50.0987 42.7111 50.0187 42.7324 49.9334H52.5404C52.8391 49.9334 52.9884 50.0934 52.9884 50.4134C52.9884 50.4774 52.9831 50.5467 52.9724 50.6214C52.9618 50.6961 52.9458 50.7761 52.9244 50.8614H50.8284ZM50.5263 58.8294V60.8294C50.5263 61.1921 50.5156 61.5121 50.4943 61.7894C50.4623 62.0774 50.4196 62.3441 50.3663 62.5894L51.2303 63.5814C51.433 63.8267 51.609 64.0241 51.7583 64.1734C51.897 64.3334 52.009 64.4667 52.0943 64.5734C52.169 64.6907 52.2276 64.7867 52.2703 64.8614C52.3023 64.9467 52.3183 65.0374 52.3183 65.1334C52.3183 65.3041 52.2543 65.4427 52.1263 65.5494C51.9983 65.6561 51.817 65.7094 51.5823 65.7094C51.465 65.5387 51.337 65.3521 51.1983 65.1494C51.0596 64.9574 50.921 64.7601 50.7823 64.5574C50.633 64.3547 50.4943 64.1521 50.3663 63.9494C50.2276 63.7574 50.0996 63.5814 49.9823 63.4214C49.7583 63.7627 49.4436 64.0507 49.0383 64.2854C48.633 64.5307 48.1476 64.6534 47.5823 64.6534C47.2943 64.6534 47.0276 64.6107 46.7823 64.5254C46.5263 64.4507 46.3076 64.3387 46.1263 64.1894C45.9343 64.0401 45.785 63.8587 45.6783 63.6454C45.5716 63.4321 45.5183 63.1921 45.5183 62.9254C45.5183 62.6481 45.5716 62.3974 45.6783 62.1734C45.785 61.9601 45.929 61.7787 46.1103 61.6294C46.2916 61.4801 46.505 61.3627 46.7503 61.2774C46.985 61.2027 47.241 61.1654 47.5183 61.1654C47.945 61.1654 48.313 61.2294 48.6223 61.3574C48.9316 61.4854 49.1983 61.6241 49.4223 61.7734V58.8294H50.5263ZM47.6623 63.7894C48.057 63.7894 48.4036 63.6881 48.7023 63.4854C49.001 63.2934 49.2303 63.0321 49.3903 62.7014C49.177 62.5094 48.9263 62.3441 48.6383 62.2054C48.3503 62.0667 48.0143 61.9974 47.6303 61.9974C47.5343 61.9974 47.4223 62.0134 47.2943 62.0454C47.1663 62.0774 47.049 62.1254 46.9423 62.1894C46.825 62.2641 46.729 62.3601 46.6543 62.4774C46.5796 62.6054 46.5423 62.7547 46.5423 62.9254C46.5423 63.2027 46.6543 63.4161 46.8783 63.5654C47.1023 63.7147 47.3636 63.7894 47.6623 63.7894ZM59.6503 50.8614V59.8374C59.5863 59.8587 59.5116 59.8747 59.4263 59.8854C59.3516 59.8961 59.2716 59.9014 59.1863 59.9014C58.9836 59.9014 58.8236 59.8641 58.7063 59.7894C58.5996 59.7147 58.5463 59.5867 58.5463 59.4054V56.3974C58.397 56.1307 58.2103 55.8694 57.9863 55.6134C57.7623 55.3574 57.517 55.1281 57.2503 54.9254C56.9943 54.7227 56.7116 54.5574 56.4023 54.4294C56.1036 54.3014 55.7996 54.2374 55.4903 54.2374C55.0316 54.2374 54.6743 54.3547 54.4183 54.5894C54.173 54.8241 54.0503 55.1281 54.0503 55.5014C54.0503 55.7147 54.0823 55.9014 54.1463 56.0614C54.2103 56.2107 54.2743 56.3441 54.3383 56.4614C54.285 56.5574 54.2103 56.6481 54.1143 56.7334C54.0183 56.8081 53.8903 56.8454 53.7303 56.8454C53.485 56.8454 53.2663 56.7281 53.0743 56.4934C52.8823 56.2587 52.7863 55.9174 52.7863 55.4694C52.7863 55.0854 52.861 54.7494 53.0103 54.4614C53.1596 54.1734 53.3516 53.9334 53.5863 53.7414C53.8316 53.5494 54.1036 53.4107 54.4023 53.3254C54.7116 53.2294 55.021 53.1814 55.3303 53.1814C55.7036 53.1814 56.0503 53.2294 56.3703 53.3254C56.6903 53.4214 56.9836 53.5494 57.2503 53.7094C57.517 53.8587 57.757 54.0294 57.9703 54.2214C58.1836 54.4134 58.3756 54.6107 58.5463 54.8134V50.8614H51.9383C51.6396 50.8614 51.4903 50.7014 51.4903 50.3814C51.4903 50.3174 51.4956 50.2481 51.5063 50.1734C51.517 50.0987 51.533 50.0187 51.5543 49.9334H61.3623C61.661 49.9334 61.8103 50.0934 61.8103 50.4134C61.8103 50.4774 61.805 50.5467 61.7943 50.6214C61.7836 50.6961 61.7676 50.7761 61.7463 50.8614H59.6503Z" fill="white"/>
<defs>
<linearGradient id="paint0_linear_0_349" x1="45" y1="-11.1626" x2="45.5" y2="188.837" gradientUnits="userSpaceOnUse">
<stop offset="0.223536" stop-color="#6210E1"/>
<stop offset="0.555821" stop-color="#1400AE"/>
</linearGradient>
</defs>
</svg>
